<?xml version="1.0" standalone="no"?>
<svg xmlns:xlink="http://www.w3.org/1999/xlink" id="wave" style="transform:rotate(180deg); transition: 0.3s" viewBox="0 0 1440 100" version="1.1" xmlns="http://www.w3.org/2000/svg"><defs><linearGradient id="sw-gradient-0" x1="0" x2="0" y1="1" y2="0"><stop stop-color="rgba(245, 245, 247, 1)" offset="0%"/><stop stop-color="rgba(245, 245, 247, 1)" offset="100%"/></linearGradient></defs><path style="transform:translate(0, 0px); opacity:1" fill="url(#sw-gradient-0)" d="M0,30L30,33.3C60,37,120,43,180,50C240,57,300,63,360,56.7C420,50,480,30,540,28.3C600,27,660,43,720,50C780,57,840,53,900,56.7C960,60,1020,70,1080,71.7C1140,73,1200,67,1260,63.3C1320,60,1380,60,1440,61.7C1500,63,1560,67,1620,65C1680,63,1740,57,1800,53.3C1860,50,1920,50,1980,51.7C2040,53,2100,57,2160,58.3C2220,60,2280,60,2340,58.3C2400,57,2460,53,2520,58.3C2580,63,2640,77,2700,71.7C2760,67,2820,43,2880,35C2940,27,3000,33,3060,45C3120,57,3180,73,3240,71.7C3300,70,3360,50,3420,35C3480,20,3540,10,3600,6.7C3660,3,3720,7,3780,13.3C3840,20,3900,30,3960,36.7C4020,43,4080,47,4140,51.7C4200,57,4260,63,4290,66.7L4320,70L4320,100L4290,100C4260,100,4200,100,4140,100C4080,100,4020,100,3960,100C3900,100,3840,100,3780,100C3720,100,3660,100,3600,100C3540,100,3480,100,3420,100C3360,100,3300,100,3240,100C3180,100,3120,100,3060,100C3000,100,2940,100,2880,100C2820,100,2760,100,2700,100C2640,100,2580,100,2520,100C2460,100,2400,100,2340,100C2280,100,2220,100,2160,100C2100,100,2040,100,1980,100C1920,100,1860,100,1800,100C1740,100,1680,100,1620,100C1560,100,1500,100,1440,100C1380,100,1320,100,1260,100C1200,100,1140,100,1080,100C1020,100,960,100,900,100C840,100,780,100,720,100C660,100,600,100,540,100C480,100,420,100,360,100C300,100,240,100,180,100C120,100,60,100,30,100L0,100Z"/></svg>